<svg xmlns="http://www.w3.org/2000/svg" xmlns:xlink="http://www.w3.org/1999/xlink" width="226" zoomAndPan="magnify" viewBox="0 0 169.5 34.499999" height="46" preserveAspectRatio="xMidYMid meet" version="1.0"><defs><g/><clipPath id="067c8f2e5c"><path d="M 48.957031 23.359375 L 122.210938 23.359375 L 122.210938 31.972656 L 48.957031 31.972656 Z M 48.957031 23.359375 " clip-rule="nonzero"/></clipPath></defs><g clip-path="url(#067c8f2e5c)"><path fill="#ff497c" d="M 122.210938 23.359375 L 122.210938 31.972656 L 48.949219 31.972656 L 48.949219 23.359375 Z M 122.210938 23.359375 " fill-opacity="1" fill-rule="nonzero"/></g><g fill="#ff497c" fill-opacity="1"><g transform="translate(44.070786, 22.116176)"><g><path d="M 2.125 0 L 0.265625 -17.4375 L 3.671875 -17.4375 L 4.640625 -6.4375 L 5.625 -17.4375 L 8.875 -17.4375 L 9.796875 -6.4375 L 10.734375 -17.4375 L 14.1875 -17.4375 L 12.28125 0 L 8.09375 0 L 7.21875 -8.40625 L 6.390625 0 Z M 2.125 0 "/></g></g></g><g fill="#ff497c" fill-opacity="1"><g transform="translate(58.514591, 22.116176)"><g><path d="M 0.765625 0 L 0.765625 -17.4375 L 7.75 -17.4375 L 7.75 -14.0625 L 4.328125 -14.0625 L 4.328125 -10.671875 L 7.609375 -10.671875 L 7.609375 -7.390625 L 4.328125 -7.390625 L 4.328125 -3.390625 L 7.984375 -3.390625 L 7.984375 0 Z M 0.765625 0 "/></g></g></g><g fill="#ff497c" fill-opacity="1"><g transform="translate(66.872524, 22.116176)"><g><path d="M 0.765625 -17.4375 L 5.5 -17.4375 C 6.769531 -17.4375 7.691406 -17.125 8.265625 -16.5 C 8.847656 -15.875 9.140625 -14.859375 9.140625 -13.453125 L 9.140625 -12.6875 C 9.140625 -11.019531 8.539062 -10.023438 7.34375 -9.703125 C 8.070312 -9.515625 8.585938 -9.070312 8.890625 -8.375 C 9.191406 -7.6875 9.34375 -6.773438 9.34375 -5.640625 C 9.34375 -3.785156 9.0625 -2.378906 8.5 -1.421875 C 7.945312 -0.472656 6.945312 0 5.5 0 L 0.765625 0 Z M 4.890625 -10.875 C 5.191406 -10.875 5.394531 -10.984375 5.5 -11.203125 C 5.601562 -11.429688 5.65625 -11.75 5.65625 -12.15625 L 5.65625 -13.90625 C 5.65625 -14.46875 5.40625 -14.75 4.90625 -14.75 L 4.1875 -14.75 L 4.1875 -10.875 Z M 4.53125 -3.0625 C 5.4375 -3.0625 5.890625 -3.492188 5.890625 -4.359375 L 5.890625 -6.53125 C 5.890625 -7.0625 5.8125 -7.460938 5.65625 -7.734375 C 5.5 -8.003906 5.222656 -8.140625 4.828125 -8.140625 L 4.1875 -8.140625 L 4.1875 -3.078125 Z M 4.53125 -3.0625 "/></g></g></g><g fill="#ff497c" fill-opacity="1"><g transform="translate(76.589636, 22.116176)"><g><path d="M 0.765625 -17.4375 L 5.375 -17.4375 C 6.769531 -17.4375 7.765625 -16.984375 8.359375 -16.078125 C 8.953125 -15.179688 9.25 -13.867188 9.25 -12.140625 C 9.25 -10.410156 8.984375 -9.101562 8.453125 -8.21875 C 7.929688 -7.34375 6.988281 -6.90625 5.625 -6.90625 L 4.203125 -6.90625 L 4.203125 0 L 0.765625 0 Z M 4.40625 -10.046875 C 4.820312 -10.046875 5.128906 -10.125 5.328125 -10.28125 C 5.523438 -10.4375 5.65625 -10.660156 5.71875 -10.953125 C 5.78125 -11.242188 5.8125 -11.660156 5.8125 -12.203125 C 5.8125 -12.929688 5.726562 -13.457031 5.5625 -13.78125 C 5.394531 -14.101562 5.070312 -14.265625 4.59375 -14.265625 L 4.203125 -14.265625 L 4.203125 -10.046875 Z M 4.40625 -10.046875 "/></g></g></g><g fill="#ff497c" fill-opacity="1"><g transform="translate(86.164742, 22.116176)"><g><path d="M 0.765625 -17.4375 L 6.125 -17.4375 C 6.976562 -17.4375 7.640625 -17.242188 8.109375 -16.859375 C 8.578125 -16.472656 8.890625 -15.929688 9.046875 -15.234375 C 9.210938 -14.535156 9.296875 -13.644531 9.296875 -12.5625 C 9.296875 -11.570312 9.164062 -10.800781 8.90625 -10.25 C 8.65625 -9.695312 8.210938 -9.3125 7.578125 -9.09375 C 8.097656 -8.988281 8.476562 -8.722656 8.71875 -8.296875 C 8.957031 -7.878906 9.078125 -7.3125 9.078125 -6.59375 L 9.03125 0 L 5.625 0 L 5.625 -6.8125 C 5.625 -7.300781 5.523438 -7.613281 5.328125 -7.75 C 5.140625 -7.882812 4.796875 -7.953125 4.296875 -7.953125 L 4.296875 0 L 0.765625 0 Z M 5.15625 -10.984375 C 5.644531 -10.984375 5.890625 -11.507812 5.890625 -12.5625 C 5.890625 -13.019531 5.867188 -13.363281 5.828125 -13.59375 C 5.785156 -13.820312 5.707031 -13.976562 5.59375 -14.0625 C 5.488281 -14.15625 5.335938 -14.203125 5.140625 -14.203125 L 4.328125 -14.203125 L 4.328125 -10.984375 Z M 5.15625 -10.984375 "/></g></g></g><g fill="#ff497c" fill-opacity="1"><g transform="translate(95.841278, 22.116176)"><g><path d="M 0.609375 0 L 0.609375 -17.4375 L 3.984375 -17.4375 L 3.984375 0 Z M 0.609375 0 "/></g></g></g><g fill="#ff497c" fill-opacity="1"><g transform="translate(100.446252, 22.116176)"><g><path d="M 4.90625 0.15625 C 3.320312 0.15625 2.175781 -0.234375 1.46875 -1.015625 C 0.769531 -1.796875 0.421875 -3.0625 0.421875 -4.8125 L 0.421875 -6.515625 L 3.859375 -6.515625 L 3.859375 -4.34375 C 3.859375 -3.476562 4.132812 -3.046875 4.6875 -3.046875 C 5 -3.046875 5.210938 -3.132812 5.328125 -3.3125 C 5.453125 -3.5 5.515625 -3.804688 5.515625 -4.234375 C 5.515625 -4.804688 5.445312 -5.273438 5.3125 -5.640625 C 5.175781 -6.015625 5.003906 -6.328125 4.796875 -6.578125 C 4.585938 -6.835938 4.210938 -7.226562 3.671875 -7.75 L 2.171875 -9.25 C 1.003906 -10.382812 0.421875 -11.644531 0.421875 -13.03125 C 0.421875 -14.519531 0.757812 -15.648438 1.4375 -16.421875 C 2.125 -17.203125 3.125 -17.59375 4.4375 -17.59375 C 6.007812 -17.59375 7.140625 -17.175781 7.828125 -16.34375 C 8.523438 -15.507812 8.875 -14.207031 8.875 -12.4375 L 5.3125 -12.4375 L 5.296875 -13.640625 C 5.296875 -13.867188 5.226562 -14.050781 5.09375 -14.1875 C 4.96875 -14.320312 4.789062 -14.390625 4.5625 -14.390625 C 4.289062 -14.390625 4.085938 -14.3125 3.953125 -14.15625 C 3.816406 -14.007812 3.75 -13.8125 3.75 -13.5625 C 3.75 -12.988281 4.078125 -12.398438 4.734375 -11.796875 L 6.765625 -9.84375 C 7.234375 -9.382812 7.625 -8.945312 7.9375 -8.53125 C 8.25 -8.125 8.5 -7.640625 8.6875 -7.078125 C 8.875 -6.515625 8.96875 -5.847656 8.96875 -5.078125 C 8.96875 -3.359375 8.648438 -2.054688 8.015625 -1.171875 C 7.390625 -0.285156 6.351562 0.15625 4.90625 0.15625 Z M 4.90625 0.15625 "/></g></g></g><g fill="#ff497c" fill-opacity="1"><g transform="translate(109.798207, 22.116176)"><g><path d="M 0.765625 0 L 0.765625 -17.4375 L 6.09375 -17.4375 L 7.546875 -6.796875 L 9.015625 -17.4375 L 14.375 -17.4375 L 14.375 0 L 11.1875 0 L 11.1875 -12.5625 L 9.171875 0 L 6.046875 0 L 3.921875 -12.5625 L 3.921875 0 Z M 0.765625 0 "/></g></g></g><g fill="#ffffff" fill-opacity="1"><g transform="translate(51.565359, 28.794736)"><g><path d="M 0.328125 -2.71875 L 1.546875 -2.71875 C 1.847656 -2.71875 2.109375 -2.660156 2.328125 -2.546875 C 2.554688 -2.429688 2.734375 -2.269531 2.859375 -2.0625 C 2.984375 -1.863281 3.046875 -1.628906 3.046875 -1.359375 C 3.046875 -1.085938 2.984375 -0.847656 2.859375 -0.640625 C 2.734375 -0.441406 2.554688 -0.285156 2.328125 -0.171875 C 2.109375 -0.0546875 1.847656 0 1.546875 0 L 0.328125 0 Z M 1.515625 -0.515625 C 1.796875 -0.515625 2.015625 -0.585938 2.171875 -0.734375 C 2.335938 -0.890625 2.421875 -1.097656 2.421875 -1.359375 C 2.421875 -1.617188 2.335938 -1.820312 2.171875 -1.96875 C 2.015625 -2.125 1.796875 -2.203125 1.515625 -2.203125 L 0.953125 -2.203125 L 0.953125 -0.515625 Z M 1.515625 -0.515625 "/></g></g></g><g fill="#ffffff" fill-opacity="1"><g transform="translate(56.799263, 28.794736)"><g><path d="M 0.328125 -2.71875 L 0.953125 -2.71875 L 0.953125 0 L 0.328125 0 Z M 0.328125 -2.71875 "/></g></g></g><g fill="#ffffff" fill-opacity="1"><g transform="translate(60.107337, 28.794736)"><g><path d="M 2.15625 -1.40625 L 2.734375 -1.40625 L 2.734375 -0.296875 C 2.578125 -0.179688 2.398438 -0.09375 2.203125 -0.03125 C 2.015625 0.0195312 1.820312 0.046875 1.625 0.046875 C 1.34375 0.046875 1.085938 -0.0078125 0.859375 -0.125 C 0.640625 -0.25 0.46875 -0.414062 0.34375 -0.625 C 0.21875 -0.84375 0.15625 -1.085938 0.15625 -1.359375 C 0.15625 -1.628906 0.21875 -1.867188 0.34375 -2.078125 C 0.46875 -2.296875 0.644531 -2.460938 0.875 -2.578125 C 1.101562 -2.703125 1.359375 -2.765625 1.640625 -2.765625 C 1.878906 -2.765625 2.09375 -2.722656 2.28125 -2.640625 C 2.476562 -2.554688 2.644531 -2.441406 2.78125 -2.296875 L 2.375 -1.921875 C 2.175781 -2.117188 1.941406 -2.21875 1.671875 -2.21875 C 1.503906 -2.21875 1.351562 -2.179688 1.21875 -2.109375 C 1.082031 -2.035156 0.972656 -1.929688 0.890625 -1.796875 C 0.816406 -1.671875 0.78125 -1.523438 0.78125 -1.359375 C 0.78125 -1.191406 0.816406 -1.039062 0.890625 -0.90625 C 0.972656 -0.769531 1.078125 -0.664062 1.203125 -0.59375 C 1.335938 -0.519531 1.492188 -0.484375 1.671875 -0.484375 C 1.847656 -0.484375 2.007812 -0.523438 2.15625 -0.609375 Z M 2.15625 -1.40625 "/></g></g></g><g fill="#ffffff" fill-opacity="1"><g transform="translate(65.128549, 28.794736)"><g><path d="M 0.328125 -2.71875 L 0.953125 -2.71875 L 0.953125 0 L 0.328125 0 Z M 0.328125 -2.71875 "/></g></g></g><g fill="#ffffff" fill-opacity="1"><g transform="translate(68.436622, 28.794736)"><g><path d="M 0.890625 -2.203125 L 0.015625 -2.203125 L 0.015625 -2.71875 L 2.375 -2.71875 L 2.375 -2.203125 L 1.515625 -2.203125 L 1.515625 0 L 0.890625 0 Z M 0.890625 -2.203125 "/></g></g></g><g fill="#ffffff" fill-opacity="1"><g transform="translate(72.866163, 28.794736)"><g><path d="M 2.109375 -0.578125 L 0.84375 -0.578125 L 0.609375 0 L -0.03125 0 L 1.171875 -2.71875 L 1.796875 -2.71875 L 3 0 L 2.34375 0 Z M 1.90625 -1.0625 L 1.484375 -2.09375 L 1.046875 -1.0625 Z M 1.90625 -1.0625 "/></g></g></g><g fill="#ffffff" fill-opacity="1"><g transform="translate(77.868039, 28.794736)"><g><path d="M 0.328125 -2.71875 L 0.953125 -2.71875 L 0.953125 -0.515625 L 2.3125 -0.515625 L 2.3125 0 L 0.328125 0 Z M 0.328125 -2.71875 "/></g></g></g><g fill="#ffffff" fill-opacity="1"><g transform="translate(82.243438, 28.794736)"><g/></g></g><g fill="#ffffff" fill-opacity="1"><g transform="translate(85.377489, 28.794736)"><g><path d="M 1.21875 0.046875 C 1 0.046875 0.789062 0.0195312 0.59375 -0.03125 C 0.394531 -0.09375 0.234375 -0.171875 0.109375 -0.265625 L 0.328125 -0.734375 C 0.441406 -0.648438 0.578125 -0.582031 0.734375 -0.53125 C 0.890625 -0.476562 1.050781 -0.453125 1.21875 -0.453125 C 1.394531 -0.453125 1.523438 -0.476562 1.609375 -0.53125 C 1.691406 -0.582031 1.734375 -0.65625 1.734375 -0.75 C 1.734375 -0.8125 1.707031 -0.863281 1.65625 -0.90625 C 1.613281 -0.945312 1.550781 -0.976562 1.46875 -1 C 1.394531 -1.03125 1.289062 -1.0625 1.15625 -1.09375 C 0.945312 -1.144531 0.773438 -1.191406 0.640625 -1.234375 C 0.515625 -1.285156 0.398438 -1.363281 0.296875 -1.46875 C 0.203125 -1.582031 0.15625 -1.734375 0.15625 -1.921875 C 0.15625 -2.078125 0.195312 -2.21875 0.28125 -2.34375 C 0.375 -2.46875 0.503906 -2.566406 0.671875 -2.640625 C 0.847656 -2.722656 1.0625 -2.765625 1.3125 -2.765625 C 1.476562 -2.765625 1.644531 -2.742188 1.8125 -2.703125 C 1.976562 -2.660156 2.125 -2.597656 2.25 -2.515625 L 2.046875 -2.046875 C 1.796875 -2.179688 1.546875 -2.25 1.296875 -2.25 C 1.117188 -2.25 0.988281 -2.21875 0.90625 -2.15625 C 0.820312 -2.101562 0.78125 -2.03125 0.78125 -1.9375 C 0.78125 -1.851562 0.828125 -1.785156 0.921875 -1.734375 C 1.023438 -1.691406 1.175781 -1.648438 1.375 -1.609375 C 1.582031 -1.554688 1.75 -1.503906 1.875 -1.453125 C 2.007812 -1.410156 2.125 -1.332031 2.21875 -1.21875 C 2.3125 -1.113281 2.359375 -0.972656 2.359375 -0.796875 C 2.359375 -0.640625 2.316406 -0.492188 2.234375 -0.359375 C 2.148438 -0.234375 2.019531 -0.132812 1.84375 -0.0625 C 1.664062 0.0078125 1.457031 0.046875 1.21875 0.046875 Z M 1.21875 0.046875 "/></g></g></g><g fill="#ffffff" fill-opacity="1"><g transform="translate(89.884371, 28.794736)"><g><path d="M 2.421875 -0.5 L 2.421875 0 L 0.328125 0 L 0.328125 -2.71875 L 2.375 -2.71875 L 2.375 -2.203125 L 0.953125 -2.203125 L 0.953125 -1.625 L 2.203125 -1.625 L 2.203125 -1.125 L 0.953125 -1.125 L 0.953125 -0.5 Z M 2.421875 -0.5 "/></g></g></g><g fill="#ffffff" fill-opacity="1"><g transform="translate(94.518871, 28.794736)"><g><path d="M 2.046875 0 L 1.53125 -0.75 L 0.953125 -0.75 L 0.953125 0 L 0.328125 0 L 0.328125 -2.71875 L 1.5 -2.71875 C 1.738281 -2.71875 1.945312 -2.675781 2.125 -2.59375 C 2.300781 -2.507812 2.4375 -2.394531 2.53125 -2.25 C 2.625 -2.101562 2.671875 -1.929688 2.671875 -1.734375 C 2.671875 -1.523438 2.625 -1.347656 2.53125 -1.203125 C 2.4375 -1.054688 2.296875 -0.945312 2.109375 -0.875 L 2.71875 0 Z M 2.03125 -1.734375 C 2.03125 -1.878906 1.984375 -1.992188 1.890625 -2.078125 C 1.796875 -2.160156 1.648438 -2.203125 1.453125 -2.203125 L 0.953125 -2.203125 L 0.953125 -1.25 L 1.453125 -1.25 C 1.648438 -1.25 1.796875 -1.289062 1.890625 -1.375 C 1.984375 -1.457031 2.03125 -1.578125 2.03125 -1.734375 Z M 2.03125 -1.734375 "/></g></g></g><g fill="#ffffff" fill-opacity="1"><g transform="translate(99.400867, 28.794736)"><g><path d="M 2.921875 -2.71875 L 1.75 0 L 1.140625 0 L -0.03125 -2.71875 L 0.640625 -2.71875 L 1.46875 -0.78125 L 2.3125 -2.71875 Z M 2.921875 -2.71875 "/></g></g></g><g fill="#ffffff" fill-opacity="1"><g transform="translate(104.325399, 28.794736)"><g><path d="M 0.328125 -2.71875 L 0.953125 -2.71875 L 0.953125 0 L 0.328125 0 Z M 0.328125 -2.71875 "/></g></g></g><g fill="#ffffff" fill-opacity="1"><g transform="translate(107.633475, 28.794736)"><g><path d="M 1.625 0.046875 C 1.34375 0.046875 1.085938 -0.0078125 0.859375 -0.125 C 0.640625 -0.25 0.46875 -0.414062 0.34375 -0.625 C 0.21875 -0.84375 0.15625 -1.085938 0.15625 -1.359375 C 0.15625 -1.628906 0.21875 -1.867188 0.34375 -2.078125 C 0.46875 -2.296875 0.640625 -2.460938 0.859375 -2.578125 C 1.085938 -2.703125 1.34375 -2.765625 1.625 -2.765625 C 1.851562 -2.765625 2.0625 -2.722656 2.25 -2.640625 C 2.445312 -2.554688 2.609375 -2.4375 2.734375 -2.28125 L 2.34375 -1.90625 C 2.15625 -2.113281 1.925781 -2.21875 1.65625 -2.21875 C 1.488281 -2.21875 1.335938 -2.179688 1.203125 -2.109375 C 1.066406 -2.035156 0.960938 -1.929688 0.890625 -1.796875 C 0.816406 -1.671875 0.78125 -1.523438 0.78125 -1.359375 C 0.78125 -1.191406 0.816406 -1.039062 0.890625 -0.90625 C 0.960938 -0.769531 1.066406 -0.664062 1.203125 -0.59375 C 1.335938 -0.519531 1.488281 -0.484375 1.65625 -0.484375 C 1.925781 -0.484375 2.15625 -0.59375 2.34375 -0.8125 L 2.734375 -0.4375 C 2.609375 -0.28125 2.445312 -0.160156 2.25 -0.078125 C 2.0625 0.00390625 1.851562 0.046875 1.625 0.046875 Z M 1.625 0.046875 "/></g></g></g><g fill="#ffffff" fill-opacity="1"><g transform="translate(112.507739, 28.794736)"><g><path d="M 2.421875 -0.5 L 2.421875 0 L 0.328125 0 L 0.328125 -2.71875 L 2.375 -2.71875 L 2.375 -2.203125 L 0.953125 -2.203125 L 0.953125 -1.625 L 2.203125 -1.625 L 2.203125 -1.125 L 0.953125 -1.125 L 0.953125 -0.5 Z M 2.421875 -0.5 "/></g></g></g><g fill="#ffffff" fill-opacity="1"><g transform="translate(117.142239, 28.794736)"><g><path d="M 1.21875 0.046875 C 1 0.046875 0.789062 0.0195312 0.59375 -0.03125 C 0.394531 -0.09375 0.234375 -0.171875 0.109375 -0.265625 L 0.328125 -0.734375 C 0.441406 -0.648438 0.578125 -0.582031 0.734375 -0.53125 C 0.890625 -0.476562 1.050781 -0.453125 1.21875 -0.453125 C 1.394531 -0.453125 1.523438 -0.476562 1.609375 -0.53125 C 1.691406 -0.582031 1.734375 -0.65625 1.734375 -0.75 C 1.734375 -0.8125 1.707031 -0.863281 1.65625 -0.90625 C 1.613281 -0.945312 1.550781 -0.976562 1.46875 -1 C 1.394531 -1.03125 1.289062 -1.0625 1.15625 -1.09375 C 0.945312 -1.144531 0.773438 -1.191406 0.640625 -1.234375 C 0.515625 -1.285156 0.398438 -1.363281 0.296875 -1.46875 C 0.203125 -1.582031 0.15625 -1.734375 0.15625 -1.921875 C 0.15625 -2.078125 0.195312 -2.21875 0.28125 -2.34375 C 0.375 -2.46875 0.503906 -2.566406 0.671875 -2.640625 C 0.847656 -2.722656 1.0625 -2.765625 1.3125 -2.765625 C 1.476562 -2.765625 1.644531 -2.742188 1.8125 -2.703125 C 1.976562 -2.660156 2.125 -2.597656 2.25 -2.515625 L 2.046875 -2.046875 C 1.796875 -2.179688 1.546875 -2.25 1.296875 -2.25 C 1.117188 -2.25 0.988281 -2.21875 0.90625 -2.15625 C 0.820312 -2.101562 0.78125 -2.03125 0.78125 -1.9375 C 0.78125 -1.851562 0.828125 -1.785156 0.921875 -1.734375 C 1.023438 -1.691406 1.175781 -1.648438 1.375 -1.609375 C 1.582031 -1.554688 1.75 -1.503906 1.875 -1.453125 C 2.007812 -1.410156 2.125 -1.332031 2.21875 -1.21875 C 2.3125 -1.113281 2.359375 -0.972656 2.359375 -0.796875 C 2.359375 -0.640625 2.316406 -0.492188 2.234375 -0.359375 C 2.148438 -0.234375 2.019531 -0.132812 1.84375 -0.0625 C 1.664062 0.0078125 1.457031 0.046875 1.21875 0.046875 Z M 1.21875 0.046875 "/></g></g></g></svg>