<svg xmlns="http://www.w3.org/2000/svg" xmlns:xlink="http://www.w3.org/1999/xlink" width="226" zoomAndPan="magnify" viewBox="0 0 169.5 34.499999" height="46" preserveAspectRatio="xMidYMid meet" version="1.0"><defs><g/></defs><g fill="#ff497c" fill-opacity="1"><g transform="translate(14.225948, 31.535645)"><g><path d="M 3.703125 0 L 0.453125 -30.296875 L 6.390625 -30.296875 L 8.078125 -11.171875 L 9.765625 -30.296875 L 15.40625 -30.296875 L 17.03125 -11.171875 L 18.65625 -30.296875 L 24.65625 -30.296875 L 21.328125 0 L 14.078125 0 L 12.546875 -14.59375 L 11.109375 0 Z M 3.703125 0 "/></g></g></g><g fill="#ff497c" fill-opacity="1"><g transform="translate(39.332412, 31.535645)"><g><path d="M 1.34375 0 L 1.34375 -30.296875 L 13.46875 -30.296875 L 13.46875 -24.4375 L 7.515625 -24.4375 L 7.515625 -18.546875 L 13.21875 -18.546875 L 13.21875 -12.84375 L 7.515625 -12.84375 L 7.515625 -5.890625 L 13.859375 -5.890625 L 13.859375 0 Z M 1.34375 0 "/></g></g></g><g fill="#ff497c" fill-opacity="1"><g transform="translate(53.860312, 31.535645)"><g><path d="M 1.34375 -30.296875 L 9.5625 -30.296875 C 11.769531 -30.296875 13.375 -29.753906 14.375 -28.671875 C 15.375 -27.585938 15.875 -25.820312 15.875 -23.375 L 15.875 -22.046875 C 15.875 -19.148438 14.835938 -17.421875 12.765625 -16.859375 C 14.035156 -16.523438 14.925781 -15.757812 15.4375 -14.5625 C 15.957031 -13.363281 16.21875 -11.773438 16.21875 -9.796875 C 16.21875 -6.578125 15.734375 -4.140625 14.765625 -2.484375 C 13.804688 -0.828125 12.070312 0 9.5625 0 L 1.34375 0 Z M 8.5 -18.90625 C 9.019531 -18.90625 9.375 -19.097656 9.5625 -19.484375 C 9.75 -19.867188 9.84375 -20.414062 9.84375 -21.125 L 9.84375 -24.15625 C 9.84375 -25.144531 9.40625 -25.640625 8.53125 -25.640625 L 7.265625 -25.640625 L 7.265625 -18.90625 Z M 7.859375 -5.328125 C 9.441406 -5.328125 10.234375 -6.078125 10.234375 -7.578125 L 10.234375 -11.359375 C 10.234375 -12.273438 10.097656 -12.96875 9.828125 -13.4375 C 9.554688 -13.90625 9.078125 -14.140625 8.390625 -14.140625 L 7.265625 -14.140625 L 7.265625 -5.359375 Z M 7.859375 -5.328125 "/></g></g></g><g fill="#ff497c" fill-opacity="1"><g transform="translate(70.75076, 31.535645)"><g><path d="M 1.34375 -30.296875 L 9.34375 -30.296875 C 11.769531 -30.296875 13.5 -29.515625 14.53125 -27.953125 C 15.5625 -26.390625 16.078125 -24.101562 16.078125 -21.09375 C 16.078125 -18.082031 15.617188 -15.8125 14.703125 -14.28125 C 13.785156 -12.75 12.140625 -11.984375 9.765625 -11.984375 L 7.296875 -11.984375 L 7.296875 0 L 1.34375 0 Z M 7.65625 -17.453125 C 8.382812 -17.453125 8.914062 -17.585938 9.25 -17.859375 C 9.59375 -18.128906 9.816406 -18.515625 9.921875 -19.015625 C 10.035156 -19.523438 10.09375 -20.25 10.09375 -21.1875 C 10.09375 -22.457031 9.945312 -23.375 9.65625 -23.9375 C 9.375 -24.507812 8.8125 -24.796875 7.96875 -24.796875 L 7.296875 -24.796875 L 7.296875 -17.453125 Z M 7.65625 -17.453125 "/></g></g></g><g fill="#ff497c" fill-opacity="1"><g transform="translate(87.394371, 31.535645)"><g><path d="M 1.34375 -30.296875 L 10.65625 -30.296875 C 12.132812 -30.296875 13.28125 -29.957031 14.09375 -29.28125 C 14.90625 -28.613281 15.453125 -27.675781 15.734375 -26.46875 C 16.015625 -25.257812 16.15625 -23.710938 16.15625 -21.828125 C 16.15625 -20.109375 15.929688 -18.765625 15.484375 -17.796875 C 15.035156 -16.835938 14.257812 -16.171875 13.15625 -15.796875 C 14.070312 -15.609375 14.734375 -15.148438 15.140625 -14.421875 C 15.554688 -13.691406 15.765625 -12.707031 15.765625 -11.46875 L 15.6875 0 L 9.765625 0 L 9.765625 -11.84375 C 9.765625 -12.695312 9.597656 -13.238281 9.265625 -13.46875 C 8.941406 -13.707031 8.34375 -13.828125 7.46875 -13.828125 L 7.46875 0 L 1.34375 0 Z M 8.953125 -19.078125 C 9.804688 -19.078125 10.234375 -19.992188 10.234375 -21.828125 C 10.234375 -22.628906 10.195312 -23.226562 10.125 -23.625 C 10.050781 -24.03125 9.921875 -24.304688 9.734375 -24.453125 C 9.546875 -24.609375 9.273438 -24.6875 8.921875 -24.6875 L 7.515625 -24.6875 L 7.515625 -19.078125 Z M 8.953125 -19.078125 "/></g></g></g><g fill="#ff497c" fill-opacity="1"><g transform="translate(104.214289, 31.535645)"><g><path d="M 1.0625 0 L 1.0625 -30.296875 L 6.90625 -30.296875 L 6.90625 0 Z M 1.0625 0 "/></g></g></g><g fill="#ff497c" fill-opacity="1"><g transform="translate(112.218732, 31.535645)"><g><path d="M 8.53125 0.28125 C 5.78125 0.28125 3.789062 -0.398438 2.5625 -1.765625 C 1.34375 -3.128906 0.734375 -5.328125 0.734375 -8.359375 L 0.734375 -11.3125 L 6.703125 -11.3125 L 6.703125 -7.546875 C 6.703125 -6.046875 7.179688 -5.296875 8.140625 -5.296875 C 8.679688 -5.296875 9.054688 -5.453125 9.265625 -5.765625 C 9.484375 -6.078125 9.59375 -6.613281 9.59375 -7.375 C 9.59375 -8.363281 9.472656 -9.179688 9.234375 -9.828125 C 9.003906 -10.472656 8.707031 -11.007812 8.34375 -11.4375 C 7.976562 -11.875 7.328125 -12.550781 6.390625 -13.46875 L 3.765625 -16.078125 C 1.742188 -18.054688 0.734375 -20.242188 0.734375 -22.640625 C 0.734375 -25.222656 1.328125 -27.191406 2.515625 -28.546875 C 3.703125 -29.898438 5.4375 -30.578125 7.71875 -30.578125 C 10.445312 -30.578125 12.410156 -29.851562 13.609375 -28.40625 C 14.804688 -26.957031 15.40625 -24.695312 15.40625 -21.625 L 9.234375 -21.625 L 9.203125 -23.703125 C 9.203125 -24.097656 9.085938 -24.410156 8.859375 -24.640625 C 8.640625 -24.878906 8.332031 -25 7.9375 -25 C 7.46875 -25 7.113281 -24.867188 6.875 -24.609375 C 6.644531 -24.359375 6.53125 -24.007812 6.53125 -23.5625 C 6.53125 -22.570312 7.09375 -21.546875 8.21875 -20.484375 L 11.75 -17.109375 C 12.570312 -16.304688 13.25 -15.546875 13.78125 -14.828125 C 14.320312 -14.109375 14.757812 -13.257812 15.09375 -12.28125 C 15.425781 -11.3125 15.59375 -10.15625 15.59375 -8.8125 C 15.59375 -5.832031 15.046875 -3.570312 13.953125 -2.03125 C 12.859375 -0.488281 11.050781 0.28125 8.53125 0.28125 Z M 8.53125 0.28125 "/></g></g></g><g fill="#ff497c" fill-opacity="1"><g transform="translate(128.474458, 31.535645)"><g><path d="M 1.34375 0 L 1.34375 -30.296875 L 10.578125 -30.296875 L 13.125 -11.8125 L 15.65625 -30.296875 L 24.96875 -30.296875 L 24.96875 0 L 19.4375 0 L 19.4375 -21.828125 L 15.9375 0 L 10.515625 0 L 6.8125 -21.828125 L 6.8125 0 Z M 1.34375 0 "/></g></g></g></svg>